<?xml version="1.0" ?><!DOCTYPE svg  PUBLIC '-//W3C//DTD SVG 1.0//EN'  'http://www.w3.org/TR/2001/REC-SVG-20010904/DTD/svg10.dtd'><svg height="110px" style="enable-background:new 0 0 110 110;" version="1.0" viewBox="0 0 110 110" width="110px" xml:space="preserve" xmlns="http://www.w3.org/2000/svg" xmlns:xlink="http://www.w3.org/1999/xlink"><g id="Artboard"/><g id="Multicolor"><circle cx="55" cy="55" r="55" style="fill:#25B7D3;"/><g><path d="M27,83V25c0-1.105-0.895-2-2-2s-2,0.895-2,2v62h62c1.105,0,2-0.895,2-2s-0.895-2-2-2H27z" style="fill:#F0F1F1;"/><rect height="16" style="fill:#0484AB;" width="12" x="33" y="67"/><rect height="27" style="fill:#0484AB;" width="12" x="51" y="56"/><rect height="49" style="fill:#0484AB;" width="12" x="69" y="34"/><path d="M70.271,44.665c0.403-9.111-6.655-16.824-15.766-17.227c-9.111-0.403-16.824,6.655-17.227,15.766    c-0.126,2.838,0.474,5.539,1.632,7.927L24.613,65.465c1.15,3.433,3.442,5.72,6.878,6.861l14.051-14.087    c2.22,1.28,4.765,2.072,7.502,2.193C62.155,60.834,69.868,53.776,70.271,44.665z" style="fill:#9CE5F4;"/><path d="M54.505,27.438c-9.111-0.404-16.824,6.655-17.227,15.766c-0.126,2.837,0.474,5.539,1.632,7.927    L24.613,65.465c0.64,1.913,1.649,3.456,2.999,4.657L65.45,32.284C62.633,29.459,58.804,27.628,54.505,27.438z" style="fill:#C9F2F8;"/><circle cx="53.775" cy="43.934" r="11.795" style="fill:#40C9E7;"/><path d="M54.296,32.151c-6.508-0.288-12.017,4.754-12.305,11.261c-0.153,3.448,1.2,6.606,3.465,8.865    l16.661-16.662C60.105,33.596,57.369,32.287,54.296,32.151z" style="fill:#6FDAF1;"/><path d="M38.91,51.131L24.613,65.465c1.15,3.433,3.442,5.72,6.878,6.861l14.051-14.087    C42.674,56.584,40.354,54.106,38.91,51.131z" style="fill:#84462D;"/><path d="M38.91,51.131L24.613,65.465c0.64,1.913,1.649,3.456,2.999,4.657L42.124,55.61    C40.818,54.31,39.722,52.803,38.91,51.131z" style="fill:#9C6144;"/><path d="M42.506,61.281l3.035-3.043c-2.868-1.654-5.188-4.132-6.631-7.107l-3.282,3.29L42.506,61.281z" style="fill:#F3B607;"/><path d="M38.91,51.131l-3.282,3.29l3.847,3.838l2.648-2.648C40.818,54.31,39.722,52.803,38.91,51.131z" style="fill:#FBE158;"/></g></g></svg>